# This file uses centimeters as units for non-parametric coordinates.

mtllib bedroom_cabinet_v1.mtl
g default
v -1.570841 1.970560 0.509811
v -1.570841 2.923768 0.509811
v -1.570841 2.923768 -0.852859
v -1.570841 1.970560 -0.852859
v 1.574131 1.970560 -0.852859
v 1.574131 1.970560 0.509811
v 1.574131 2.923768 0.509811
v 1.574131 2.923768 -0.852859
v -1.438154 2.883551 -0.852859
v -1.438154 2.010775 -0.852859
v 1.441444 2.010775 -0.852859
v 1.574131 0.955331 -0.852859
v 1.574131 0.955331 0.509811
v 1.574131 0.115955 0.560944
v 1.574131 2.925772 0.560944
v 1.574131 2.925772 -0.903993
v 1.441444 2.883551 -0.852859
v -1.438154 2.883551 -0.892169
v -1.438154 2.010775 -0.892169
v 1.441444 2.010775 -0.892169
v 1.574131 0.844451 0.514405
v 1.574131 0.115955 -0.903993
v 1.574131 0.844451 -0.857454
v -1.578336 0.955331 -0.852859
v -1.578336 0.955331 0.509811
v 1.643592 0.115955 0.560944
v 1.643592 2.925772 0.560944
v -1.574131 2.925772 -0.903993
v -1.574131 2.925772 0.560944
v 1.441444 2.883551 -0.892169
v -1.428328 2.020602 -0.901995
v -1.428328 2.873725 -0.901995
v 1.431618 2.020602 -0.901995
v -1.578336 0.844451 0.514405
v -1.578336 0.844451 -0.857454
v 1.643592 -0.004681 0.560944
v 1.574131 -0.004681 0.560944
v 1.713040 0.115955 0.491497
v 1.713040 2.925772 0.491497
v 1.643592 3.044505 0.560944
v 1.574131 3.044505 0.560944
v -1.574131 0.115955 0.560944
v -1.574131 0.115955 -0.903993
v -1.574131 3.044505 -0.903993
v 1.574131 3.044505 -0.903993
v -1.574131 3.044505 0.560944
v 1.643592 2.925772 -0.903993
v 1.643592 0.115955 -0.903993
v 1.431618 2.873725 -0.901995
v 0.004590 0.115955 -0.903993
v 0.004590 0.115955 0.560944
v 1.643592 -0.004681 -0.903993
v 1.713040 -0.004681 -0.834545
v 1.713040 -0.004681 0.491497
v 1.574131 -0.004681 -0.903993
v 0.004590 -0.004681 0.560944
v 1.713040 0.115955 -0.834545
v 1.713040 2.925772 -0.834545
v 1.713040 3.044505 0.491497
v 1.574131 3.074142 0.531309
v 1.631317 3.074142 0.531309
v -1.643592 0.115955 0.560944
v -1.643592 2.925772 0.560944
v -0.004590 0.115955 0.560944
v -0.004590 0.115955 -0.903993
v -1.643592 0.115955 -0.903993
v -1.643592 2.925772 -0.903993
v -1.643592 3.044505 -0.903993
v -1.574131 3.074142 -0.874357
v 1.574131 3.074142 -0.874357
v 1.643592 3.044505 -0.903993
v -1.643592 3.044505 0.560944
v -1.574131 3.074142 0.531309
v 0.004590 -0.004681 -0.903993
v -0.004590 -0.004681 0.560944
v 1.713040 3.044505 -0.834545
v 1.683404 3.074142 0.479221
v 1.683404 3.074142 -0.822269
v 1.631317 3.074142 -0.874357
v -1.713040 0.115955 0.491497
v -1.713040 2.925772 0.491497
v -1.643592 -0.004681 0.560944
v -1.574131 -0.004681 0.560944
v -1.574131 -0.004681 -0.903993
v -0.004590 -0.004681 -0.903993
v -1.643592 -0.004681 -0.903993
v -1.713040 0.115955 -0.834545
v -1.713040 2.925772 -0.834545
v -1.713040 3.044505 -0.834545
v -1.631317 3.074142 -0.874357
v -1.713040 3.044505 0.491497
v -1.631317 3.074142 0.531309
v -1.713040 -0.004681 0.491497
v -1.713040 -0.004681 -0.834545
v -1.683404 3.074142 -0.822269
v -1.683404 3.074142 0.479221
v -0.432137 2.274593 -0.782628
v -0.432137 2.396403 -0.782628
v 0.432137 2.396403 -0.782628
v 0.432137 2.274593 -0.782628
v -0.432137 2.396403 -0.882315
v -0.432137 2.274593 -0.882315
v 0.432137 2.274593 -0.882315
v 0.432137 2.396403 -0.882315
v -0.432137 2.484237 -0.782628
v 0.432137 2.484237 -0.782628
v -0.432137 2.484237 -0.882315
v 0.432137 2.484237 -0.882315
v -0.441977 2.264754 -0.901995
v -0.435019 2.271711 -0.899113
v -0.432137 2.274593 -0.892156
v 0.441977 2.264754 -0.901995
v 0.435019 2.271711 -0.899113
v 0.432137 2.274593 -0.892156
v 0.441977 2.406242 -0.901995
v 0.435019 2.399285 -0.899113
v 0.432137 2.396403 -0.892156
v -0.441977 2.406242 -0.901995
v -0.435019 2.399285 -0.899113
v -0.432137 2.396403 -0.892156
vt 0.385136 0.250000
vt 0.385136 0.250000
vt 0.385136 0.500000
vt 0.385136 0.500000
vt 0.385136 0.500000
vt 0.385136 0.250000
vt 0.385136 0.250000
vt 0.385136 0.500000
vt 0.385136 0.500000
vt 0.385136 0.500000
vt 0.385136 0.500000
vt 0.385136 0.500000
vt 0.385136 0.250000
vt 0.385136 0.250000
vt 0.385136 0.250000
vt 0.385136 0.500000
vt 0.385136 0.500000
vt 0.385136 0.500000
vt 0.385136 0.500000
vt 0.385136 0.500000
vt 0.385136 0.250000
vt 0.385136 0.500000
vt 0.385136 0.500000
vt 0.385136 0.500000
vt 0.385136 0.250000
vt 0.380068 0.250000
vt 0.380068 0.250000
vt 0.385136 0.500000
vt 0.385136 0.250000
vt 0.385136 0.500000
vt 0.385136 0.500000
vt 0.385136 0.250000
vt 0.385136 0.500000
vt 0.380068 0.000000
vt 0.385136 0.000000
vt 0.363148 0.250000
vt 0.375000 0.261852
vt 0.380068 0.250000
vt 0.385136 0.250000
vt 0.385136 0.250000
vt 0.385136 0.500000
vt 0.385136 0.500000
vt 0.385136 0.500000
vt 0.385136 0.250000
vt 0.380068 0.500000
vt 0.380068 0.500000
vt 0.499665 0.500000
vt 0.499665 0.250000
vt 0.380068 0.750000
vt 0.375000 0.761852
vt 0.375000 0.988148
vt 0.380068 1.000000
vt 0.385136 1.000000
vt 0.385136 0.750000
vt 0.363148 0.000000
vt 0.499665 0.000000
vt 0.375000 0.488148
vt 0.375000 0.488148
vt 0.375000 0.261852
vt 0.375000 0.261852
vt 0.385136 0.255058
vt 0.380963 0.255098
vt 0.380068 0.250000
vt 0.380068 0.250000
vt 0.499665 0.250000
vt 0.499665 0.500000
vt 0.380430 0.500000
vt 0.380068 0.500000
vt 0.380068 0.500000
vt 0.385136 0.494942
vt 0.385136 0.494942
vt 0.380068 0.500000
vt 0.380068 0.250000
vt 0.385136 0.255058
vt 0.499665 0.750000
vt 0.136852 0.000000
vt 0.125000 0.000000
vt 0.125000 0.250000
vt 0.136852 0.250000
vt 0.499665 1.000000
vt 0.499665 0.000000
vt 0.375000 0.488148
vt 0.377163 0.263964
vt 0.377163 0.486053
vt 0.380963 0.494943
vt 0.375000 0.261866
vt 0.375000 0.261852
vt 0.380067 -0.000000
vt 0.385136 0.000000
vt 0.385136 0.750000
vt 0.499665 0.750000
vt 0.380068 0.750000
vt 0.375000 0.488148
vt 0.375000 0.488148
vt 0.375000 0.488148
vt 0.380963 0.494902
vt 0.375000 0.261852
vt 0.380963 0.255058
vt 0.499665 1.000000
vt 0.363148 -0.000000
vt 0.363148 0.250000
vt 0.375000 0.761856
vt 0.385136 1.000000
vt 0.380068 1.000000
vt 0.375000 0.988148
vt 0.136852 0.250000
vt 0.125000 0.250000
vt 0.125000 0.000000
vt 0.136852 -0.000000
vt 0.377163 0.486053
vt 0.377163 0.263947
vt 0.375000 0.000000
vt 0.375000 0.250000
vt 0.625000 0.250000
vt 0.625000 0.000000
vt 0.297157 0.250000
vt 0.375000 0.922157
vt 0.375000 1.000000
vt 0.625000 1.000000
vt 0.702843 0.000000
vt 0.375000 0.250000
vt 0.625000 0.250000
vt 0.375000 0.327843
vt 0.625000 0.327843
vt 0.625000 0.327843
vt 0.385136 0.500000
vt 0.385136 0.500000
vt 0.385136 0.500000
vt 0.385136 0.500000
vt 0.385136 0.500000
vt 0.385136 0.500000
vt 0.289472 0.250000
vt 0.297157 0.000000
vt 0.375000 0.914472
vt 0.625000 0.922157
vt 0.710528 0.000000
vt 0.702843 0.250000
vt 0.625000 0.335528
vt 0.375000 0.327843
vt 0.625000 0.914472
vt 0.710528 0.250000
vt 0.385136 0.500000
vt 0.375000 0.335528
vt 0.289472 0.000000
vt 0.385136 0.500000
vt 0.281789 0.000000
vt 0.375000 0.906789
vt 0.718211 0.000000
vt 0.385136 0.500000
vt 0.625000 0.906789
vt 0.625000 0.343211
vt 0.385136 0.500000
vt 0.718211 0.250000
vt 0.281789 0.250000
vt 0.385136 0.500000
vt 0.375000 0.343211
vn -1.000000 0.000000 0.000000
vn -1.000000 0.000000 0.000000
vn -1.000000 0.000000 0.000000
vn -1.000000 0.000000 0.000000
vn 0.000000 -1.000000 0.000000
vn 0.000000 -1.000000 0.000000
vn 0.000000 -1.000000 0.000000
vn 0.000000 -1.000000 0.000000
vn 0.000000 0.000000 1.000000
vn 0.000000 0.000000 1.000000
vn 0.000000 0.000000 1.000000
vn 0.000000 0.000000 1.000000
vn 0.000000 1.000000 0.000000
vn 0.000000 1.000000 0.000000
vn 0.000000 1.000000 0.000000
vn 0.000000 1.000000 0.000000
vn 0.000000 0.000000 -1.000000
vn 0.000000 0.000000 -1.000000
vn 0.000000 0.000000 -1.000000
vn 0.000000 0.000000 -1.000000
vn 0.000000 0.000000 -1.000000
vn 0.000000 0.000000 -1.000000
vn 0.000000 0.000000 -1.000000
vn 0.000000 0.000000 -1.000000
vn -1.000000 0.000000 0.000000
vn -1.000000 -0.000000 0.000000
vn -1.000000 -0.000000 0.000000
vn -1.000000 0.000000 0.000000
vn -1.000000 0.000000 0.000000
vn -1.000000 0.000000 0.000000
vn -1.000000 0.000000 0.000000
vn -1.000000 0.000000 0.000000
vn -1.000000 0.000000 0.000000
vn 0.000000 0.000000 -1.000000
vn 0.000000 0.000000 -1.000000
vn 0.000000 0.000000 -1.000000
vn 0.000000 0.000000 -1.000000
vn -1.000000 0.000000 0.000000
vn -1.000000 0.000000 0.000000
vn -1.000000 0.000000 0.000000
vn -1.000000 0.000000 0.000000
vn 0.000000 0.000000 -1.000000
vn 0.000000 0.000000 -1.000000
vn 0.000000 0.000000 -1.000000
vn 0.000000 0.000000 -1.000000
vn 0.000000 -1.000000 0.000000
vn 0.000000 -1.000000 0.000000
vn 0.000000 -1.000000 0.000000
vn 0.000000 -1.000000 0.000000
vn -1.000000 0.000000 0.000000
vn -1.000000 0.000000 0.000000
vn -1.000000 0.000000 0.000000
vn 0.000000 1.000000 0.000000
vn 0.000000 1.000000 0.000000
vn 0.000000 1.000000 0.000000
vn 0.000000 1.000000 0.000000
vn 0.000000 0.000000 1.000000
vn 0.000000 0.000000 1.000000
vn 0.000000 0.000000 1.000000
vn 0.000000 0.000000 1.000000
vn 0.000000 -1.000000 0.000000
vn 0.000000 -1.000000 0.000000
vn 0.000000 -1.000000 0.000000
vn 0.000000 -1.000000 0.000000
vn 0.000000 1.000000 0.000000
vn 0.000000 1.000000 0.000000
vn 0.000000 1.000000 0.000000
vn 0.000000 1.000000 0.000000
vn -0.707106 0.000000 -0.707107
vn -0.707106 0.000000 -0.707107
vn -0.707106 0.000000 -0.707107
vn -0.707106 0.000000 -0.707107
vn 1.000000 0.000000 0.000000
vn 1.000000 0.000000 0.000000
vn 1.000000 0.000000 0.000000
vn 1.000000 0.000000 0.000000
vn 0.000000 -0.707107 -0.707106
vn 0.000000 -0.707107 -0.707106
vn 0.000000 -0.707107 -0.707106
vn 0.000000 -0.707107 -0.707106
vn 0.000000 0.041400 0.999143
vn 0.000000 0.041400 0.999143
vn 0.000000 0.041400 0.999143
vn 0.000000 0.041400 0.999143
vn 0.000000 0.041400 -0.999143
vn 0.000000 0.041400 -0.999143
vn 0.000000 0.041400 -0.999143
vn 0.000000 0.041400 -0.999143
vn -1.000000 0.000000 0.000000
vn -1.000000 0.000000 0.000000
vn -1.000000 0.000000 0.000000
vn -1.000000 0.000000 0.000000
vn 0.000000 0.000000 1.000000
vn 0.000000 0.000000 1.000000
vn 0.707105 0.000000 0.707108
vn 0.707105 0.000000 0.707108
vn 0.707105 0.000000 0.707108
vn 0.707105 0.000000 0.707108
vn 0.000000 0.000000 1.000000
vn 0.000000 0.000000 1.000000
vn 1.000000 0.000000 0.000000
vn 1.000000 0.000000 0.000000
vn 1.000000 0.000000 0.000000
vn 1.000000 0.000000 0.000000
vn 0.000000 0.000000 -1.000000
vn 0.000000 0.000000 -1.000000
vn 0.000000 0.000000 -1.000000
vn 0.000000 0.000000 -1.000000
vn 0.000000 0.000000 1.000000
vn 0.000000 0.000000 1.000000
vn 0.000000 0.000000 -1.000000
vn 0.000000 0.000000 -1.000000
vn 0.000000 0.000000 -1.000000
vn 0.000000 0.707107 -0.707106
vn 0.000000 0.707107 -0.707106
vn 0.000000 0.707107 -0.707106
vn 0.000000 0.707107 -0.707106
vn 0.707106 0.000000 -0.707107
vn 0.707106 0.000000 -0.707107
vn 0.707106 0.000000 -0.707107
vn 0.707106 0.000000 -0.707107
vn 0.000000 1.000000 0.000000
vn 0.000000 1.000000 0.000000
vn 0.000000 1.000000 0.000000
vn 0.000000 1.000000 0.000000
vn 0.000000 -1.000000 0.000000
vn 0.000000 -1.000000 0.000000
vn 0.000000 -1.000000 0.000000
vn 0.000000 -1.000000 0.000000
vn 0.000000 -1.000000 0.000000
vn 0.000000 -1.000000 0.000000
vn 0.000000 -1.000000 0.000000
vn 0.000000 -1.000000 0.000000
vn 0.000000 -1.000000 0.000000
vn 0.000000 -1.000000 0.000000
vn 0.707106 0.000000 0.707108
vn 0.707106 0.000000 0.707108
vn 0.000000 0.000000 1.000000
vn 0.000000 0.000000 1.000000
vn 1.000000 0.000000 0.000000
vn 1.000000 0.000000 0.000000
vn 1.000000 0.000000 0.000000
vn 1.000000 0.000000 0.000000
vn 0.707105 0.000000 0.707109
vn 0.707105 0.000000 0.707109
vn 0.000000 0.707086 0.707128
vn 0.000000 0.707086 0.707128
vn 0.000000 0.707087 0.707126
vn 0.000000 0.707087 0.707126
vn 0.000000 0.000000 1.000000
vn 0.000000 0.000000 1.000000
vn 0.000000 0.000000 1.000000
vn 0.000000 1.000000 0.000000
vn 0.000000 1.000000 0.000000
vn 0.000000 1.000000 0.000000
vn 0.000000 1.000000 0.000000
vn 0.000000 0.000000 -1.000000
vn 0.000000 0.000000 -1.000000
vn 0.000000 0.000000 -1.000000
vn 0.000000 0.000000 -1.000000
vn 0.000000 0.707086 -0.707128
vn 0.000000 0.707086 -0.707128
vn 0.000000 0.707086 -0.707128
vn 0.000000 0.707086 -0.707128
vn 0.000000 0.000000 -1.000000
vn 0.000000 0.000000 1.000000
vn 0.000000 0.707086 0.707128
vn 0.000000 0.707086 0.707128
vn 0.000000 0.000000 -1.000000
vn 0.000000 0.000000 -1.000000
vn 0.707105 0.000000 -0.707109
vn 0.707105 0.000000 -0.707109
vn 0.707105 0.000000 -0.707109
vn 0.707105 0.000000 -0.707109
vn 0.000000 0.000000 -1.000000
vn 0.000000 0.000000 -1.000000
vn 0.707105 0.000000 -0.707109
vn 0.707105 0.000000 -0.707109
vn 1.000000 0.000000 0.000000
vn 1.000000 0.000000 0.000000
vn 0.000000 -1.000000 0.000000
vn 0.000000 -1.000000 0.000000
vn 0.000000 0.000000 1.000000
vn 0.000000 0.000000 1.000000
vn 1.000000 0.000000 0.000000
vn 1.000000 0.000000 0.000000
vn 0.500011 0.707091 0.500011
vn 0.500011 0.707091 0.500011
vn 0.500011 0.707091 0.500011
vn 0.500011 0.707091 0.500011
vn 0.000000 1.000000 0.000000
vn 0.000000 1.000000 0.000000
vn 0.000000 1.000000 0.000000
vn 0.000000 1.000000 0.000000
vn 0.000000 1.000000 0.000000
vn 0.000000 1.000000 0.000000
vn -0.707105 0.000000 0.707108
vn -0.707105 0.000000 0.707108
vn -0.707105 0.000000 0.707108
vn -0.707105 0.000000 0.707108
vn 0.000000 0.000000 1.000000
vn 0.000000 0.000000 1.000000
vn 0.000000 0.000000 -1.000000
vn 0.000000 0.000000 -1.000000
vn 0.000000 0.000000 -1.000000
vn 0.000000 0.000000 -1.000000
vn -0.707105 0.000000 -0.707109
vn -0.707105 0.000000 -0.707109
vn -0.707105 0.000000 -0.707109
vn -0.707105 0.000000 -0.707109
vn -0.707105 0.000000 -0.707109
vn -0.707105 0.000000 -0.707109
vn 0.000000 0.707087 -0.707126
vn 0.000000 0.707087 -0.707126
vn 0.000000 1.000000 0.000000
vn 0.000000 1.000000 0.000000
vn 0.000000 0.707087 -0.707126
vn 0.000000 0.707087 -0.707126
vn 0.707105 0.000000 -0.707109
vn 0.707105 0.000000 -0.707109
vn -0.707105 0.000000 0.707109
vn -0.707105 0.000000 0.707109
vn 0.000000 0.707087 0.707126
vn 0.000000 0.707087 0.707126
vn 0.000000 -1.000000 0.000000
vn 0.000000 -1.000000 0.000000
vn 0.707123 0.707091 0.000000
vn 0.707123 0.707091 0.000000
vn 0.707123 0.707091 0.000000
vn 0.707123 0.707091 0.000000
vn 0.500011 0.707090 -0.500012
vn 0.500011 0.707090 -0.500012
vn 0.500011 0.707090 -0.500012
vn 0.500011 0.707090 -0.500012
vn -1.000000 0.000000 0.000000
vn -1.000000 0.000000 0.000000
vn -1.000000 0.000000 0.000000
vn -1.000000 0.000000 0.000000
vn -0.707106 0.000000 0.707108
vn -0.707106 0.000000 0.707108
vn 0.000000 -1.000000 0.000000
vn 0.000000 -1.000000 0.000000
vn 0.000000 -1.000000 0.000000
vn 0.000000 -1.000000 0.000000
vn 0.000000 -1.000000 0.000000
vn 0.000000 -1.000000 0.000000
vn -0.707105 0.000000 -0.707109
vn -0.707105 0.000000 -0.707109
vn -1.000000 0.000000 0.000000
vn -1.000000 0.000000 0.000000
vn -0.500010 0.707091 -0.500012
vn -0.500011 0.707091 -0.500012
vn -0.500011 0.707091 -0.500012
vn -0.500010 0.707091 -0.500012
vn 0.000000 1.000000 0.000000
vn 0.000000 1.000000 0.000000
vn 0.000000 1.000000 0.000000
vn 0.000000 1.000000 0.000000
vn -0.500012 0.707093 0.500008
vn -0.500012 0.707093 0.500008
vn -0.500012 0.707093 0.500008
vn -0.500012 0.707093 0.500008
vn -1.000000 0.000000 0.000000
vn -1.000000 0.000000 0.000000
vn -0.707123 0.707091 0.000000
vn -0.707123 0.707091 0.000000
vn -0.707123 0.707091 0.000000
vn -0.707123 0.707091 0.000000
vn 0.000000 0.000000 -1.000000
vn 0.000000 0.000000 -1.000000
vn 0.000000 0.000000 -1.000000
vn 0.000000 0.000000 -1.000000
vn 1.000000 0.000000 0.000000
vn 1.000000 0.000000 0.000000
vn 1.000000 0.000000 0.000000
vn 1.000000 0.000000 0.000000
vn 0.000000 1.000000 0.000000
vn 0.000000 1.000000 0.000000
vn 0.000000 1.000000 0.000000
vn 0.000000 1.000000 0.000000
vn -1.000000 0.000000 0.000000
vn -1.000000 0.000000 0.000000
vn -1.000000 0.000000 0.000000
vn -1.000000 0.000000 0.000000
vn 0.000000 0.000000 -1.000000
vn 0.000000 0.000000 -1.000000
vn 1.000000 0.000000 0.000000
vn 1.000000 0.000000 0.000000
vn -1.000000 0.000000 0.000000
vn -1.000000 0.000000 0.000000
vn 0.000000 -1.000000 0.000000
vn 0.000000 -1.000000 0.000000
vn 0.000000 -1.000000 0.000000
vn 0.000000 -1.000000 0.000000
vn 0.000000 0.000000 1.000000
vn 0.000000 0.000000 1.000000
vn 0.000000 0.000000 1.000000
vn 0.000000 0.000000 1.000000
vn -0.000000 0.000000 -1.000000
vn -0.000000 0.000000 -1.000000
vn 0.000000 0.000000 -1.000000
vn 0.000061 0.000398 -1.000000
vn -0.000214 0.001393 -0.999999
vn -0.000057 -0.000372 -1.000000
vn 0.000149 -0.000969 -1.000000
vn 0.000000 0.000000 -1.000000
vn 0.981459 0.000000 -0.191673
vn 0.981459 0.000000 -0.191673
vn 0.000000 0.981841 -0.189707
vn 0.000000 0.981841 -0.189707
vn -0.981459 0.000000 -0.191673
vn -0.981459 0.000000 -0.191673
vn 0.000000 -0.981838 -0.189724
vn 0.000000 -0.981838 -0.189724
vn 0.000000 -1.000000 0.000000
vn 0.000000 -1.000000 0.000000
vn 0.000000 0.382681 -0.923881
vn 0.000000 0.382681 -0.923881
vn 0.000000 0.923886 -0.382669
vn 0.000000 0.923886 -0.382669
vn -0.382687 0.000000 -0.923878
vn -0.382687 0.000000 -0.923878
vn -0.923879 0.000000 -0.382684
vn -0.923879 0.000000 -0.382684
vn 0.000000 -0.382681 -0.923881
vn 0.000000 -0.382681 -0.923881
vn 0.000000 -0.923873 -0.382700
vn 0.000000 -0.923873 -0.382700
vn 0.923879 0.000000 -0.382684
vn 0.923879 0.000000 -0.382684
vn 0.382687 0.000000 -0.923878
vn 0.382687 0.000000 -0.923878
s off
g pCube3
usemtl initialShadingGroup
f 1/1/1 2/2/2 3/3/3 4/4/4
f 5/5/5 6/6/6 1/1/7 4/4/8
f 6/6/9 7/7/10 2/2/11 1/1/12
f 7/7/13 8/8/14 3/3/15 2/2/16
f 4/4/17 3/3/18 9/9/19 10/10/20
f 5/5/21 4/4/22 10/10/23 11/11/24
s 1
f 6/6/25 5/5/26 12/12/27 13/13/28
f 14/14/29 15/15/30 7/7/31 6/6/25
f 15/15/30 16/16/32 8/8/33 7/7/31
s off
f 3/3/34 8/8/35 17/17/36 9/9/37
f 10/10/38 9/9/39 18/18/40 19/19/41
f 8/8/42 5/5/43 11/11/44 17/17/45
f 11/11/46 10/10/47 19/19/48 20/20/49
s 1
f 14/14/29 6/6/25 13/13/28 21/21/50
f 5/5/26 22/22/51 23/23/52 12/12/27
s off
f 13/13/53 12/12/54 24/24/55 25/25/56
s 3
f 26/26/57 27/27/58 15/15/59 14/14/60
s off
f 28/28/61 16/16/62 15/15/63 29/29/64
s 1
f 16/16/32 22/22/51 5/5/26 8/8/33
s off
f 9/9/65 17/17/66 30/30/67 18/18/68
f 31/126/69 19/19/70 18/18/71 32/131/72
f 17/17/73 11/11/74 20/20/75 30/30/76
f 33/31/77 20/20/78 19/19/79 31/126/80
s 1
f 22/22/51 14/14/29 21/21/50 23/23/52
s off
f 21/21/81 13/13/82 25/25/83 34/32/84
f 12/12/85 23/23/86 35/33/87 24/24/88
f 35/33/89 34/32/90 25/25/91 24/24/92
s 3
f 36/34/93 26/26/57 14/14/60 37/35/94
s 4
f 26/26/95 38/36/96 39/37/97 27/27/98
s 3
f 27/27/58 40/38/99 41/39/100 15/15/59
s off
f 42/40/101 43/41/102 28/28/103 29/29/104
s 5
f 44/42/105 45/43/106 16/16/107 28/28/108
s 3
f 29/29/109 15/15/59 41/39/100 46/44/110
s 5
f 22/22/111 16/16/107 47/45/112 48/46/113
s off
f 30/30/114 49/129/115 32/131/116 18/18/117
f 20/20/118 33/31/119 49/129/120 30/30/121
s 6
f 22/22/122 50/47/123 51/48/124 14/14/125
s off
f 23/23/126 21/21/127 34/32/128 35/33/129
s 7
f 52/49/130 53/50/131 54/51/132 36/52/133 37/53/134 55/54/135
s 4
f 36/34/136 54/55/137 38/36/96 26/26/95
s 3
f 14/14/60 51/48/138 56/56/139 37/35/94
s 8
f 57/57/140 58/58/141 39/37/142 38/59/143
s 4
f 59/60/144 40/38/145 27/27/98 39/37/97
s 9
f 60/61/146 41/39/147 40/38/148 61/62/149
s 3
f 62/63/150 42/40/151 29/29/109 63/64/152
s 6
f 43/41/153 42/40/154 64/65/155 65/66/156
s 5
f 43/41/157 66/67/158 67/68/159 28/28/108
f 28/28/108 67/68/159 68/69/160 44/42/105
s 12
f 44/42/161 69/70/162 70/71/163 45/43/164
s 5
f 16/16/107 45/43/106 71/72/165 47/45/112
s 3
f 63/64/152 29/29/109 46/44/110 72/73/166
s 9
f 73/74/167 46/44/168 41/39/147 60/61/146
s 5
f 48/46/113 52/49/169 55/54/170 22/22/111
s 13
f 57/57/171 48/46/172 47/45/173 58/58/174
s 5
f 55/54/170 74/75/175 50/47/176 22/22/111
s 6
f 64/65/155 51/48/124 50/47/123 65/66/156
s 13
f 53/76/177 52/77/178 48/78/172 57/79/171
s 8
f 53/76/179 57/79/140 38/36/143 54/55/180
s 7
f 37/53/134 56/80/181 74/75/182 55/54/135
s 3
f 75/81/183 56/56/139 51/48/138 64/65/184
s 8
f 58/58/141 76/82/185 59/60/186 39/37/142
s off
f 59/60/187 77/83/188 61/62/189 40/38/190
s 14
f 61/62/191 77/83/192 78/84/193 79/85/194 70/71/195 60/61/196
s 15
f 80/86/197 62/63/198 63/64/199 81/87/200
s 3
f 62/63/150 82/88/201 83/89/202 42/40/151
s 5
f 84/90/203 43/41/157 65/66/204 85/91/205
s 3
f 42/40/151 83/89/202 75/81/183 64/65/184
s 5
f 66/67/158 43/41/157 84/90/203 86/92/206
s 16
f 66/67/207 87/93/208 88/94/209 67/68/210
f 67/68/210 88/94/209 89/95/211 68/69/212
s 12
f 69/70/162 44/42/161 68/69/213 90/96/214
s 14
f 73/74/215 60/61/196 70/71/195 69/70/216
s 12
f 45/43/164 70/71/163 79/85/217 71/72/218
s 13
f 71/72/219 76/82/220 58/58/174 47/45/173
s 15
f 81/87/200 63/64/199 72/73/221 91/97/222
s 9
f 46/44/168 73/74/167 92/98/223 72/73/224
s 5
f 65/66/204 50/47/176 74/75/175 85/91/205
s 7
f 85/91/225 74/75/182 56/80/181 75/99/226
s off
f 77/83/227 59/60/228 76/82/229 78/84/230
f 78/84/231 76/82/232 71/72/233 79/85/234
s 17
f 87/93/235 80/86/236 81/87/237 88/94/238
s 15
f 93/100/239 82/88/240 62/63/198 80/101/197
s 7
f 94/102/241 86/92/242 84/90/243 83/103/244 82/104/245 93/105/246
f 83/103/244 84/90/243 85/91/225 75/99/226
s 16
f 87/106/208 66/107/207 86/108/247 94/109/248
s 17
f 88/94/238 81/87/237 91/97/249 89/95/250
s off
f 89/95/251 95/110/252 90/96/253 68/69/254
s 14
f 96/111/255 92/98/256 73/74/215 69/70/216 90/96/257 95/110/258
s off
f 72/73/259 92/98/260 96/111/261 91/97/262
s 17
f 87/106/235 94/109/263 93/100/264 80/101/236
s off
f 91/97/265 96/111/266 95/110/267 89/95/268
s 18
f 97/112/269 98/113/270 99/114/271 100/115/272
s 19
f 101/116/273 98/113/274 97/112/275 102/133/276
s 20
f 102/117/277 97/118/278 100/119/279 103/135/280
s 21
f 100/115/281 99/114/282 104/137/283 103/120/284
s 18
f 98/113/270 105/121/285 106/122/286 99/114/271
s 19
f 101/139/273 107/123/287 105/121/288 98/113/274
s 21
f 99/114/282 106/122/289 108/124/290 104/125/283
s off
f 105/121/291 107/123/292 108/124/293 106/122/294
f 104/125/295 108/124/296 107/123/297 101/139/298
s 22
f 49/129/299 33/31/300 31/126/301 109/130/302 112/127/303 115/128/304
f 49/129/299 115/128/304 118/142/305 109/130/302 31/126/301 32/131/306
s 19
f 111/144/307 120/132/308 101/116/273 102/133/276
s 20
f 114/140/309 111/134/310 102/117/277 103/135/280
s 21
f 117/141/311 114/136/312 103/120/284 104/137/283
s 23
f 120/143/313 117/138/314 104/125/315 101/139/316
s 22
f 109/130/302 110/145/317 113/149/318 112/127/303
s 20
f 110/147/319 111/134/310 114/140/309 113/150/320
s 22
f 112/127/303 113/149/321 116/152/322 115/128/304
s 21
f 113/148/323 114/136/312 117/141/311 116/153/324
s 22
f 115/128/304 116/152/325 119/155/326 118/142/305
s 23
f 116/151/327 117/138/314 120/143/313 119/156/328
s 19
f 111/144/307 110/146/329 119/154/330 120/132/308
s 22
f 110/145/331 109/130/302 118/142/305 119/155/332
